<?xml version="1.0" encoding="utf-8"?>
<svg xmlns="http://www.w3.org/2000/svg" xmlns:svg="http://www.w3.org/2000/svg" version="1.1" viewBox="0 0 1400 340">
	<title>The titlepage for the Standard Ebooks edition of Something New, by P. G. Wodehouse</title>
	<g aria-label="SOMETHING NEW">
		<path d="m 308.98026,64.027777 v 9.000365 q -5.25402,-2.512792 -9.91411,-3.746345 -4.66009,-1.233552 -9.00037,-1.233552 -7.53837,0 -11.65022,2.923976 -4.06615,2.923977 -4.06615,8.315059 0,4.523026 2.69554,6.85307 2.74123,2.284357 10.32529,3.700658 l 5.57383,1.142178 q 10.32529,1.964547 15.21382,6.944445 4.93421,4.934209 4.93421,13.249269 0,9.91411 -6.67032,15.03107 -6.62464,5.11696 -19.46272,5.11696 -4.84284,0 -10.3253,-1.09649 -5.43676,-1.0965 -11.28472,-3.24379 v -9.50293 q 5.61952,3.15242 11.0106,4.75147 5.39108,1.59905 10.59942,1.59905 7.90387,0 12.19846,-3.10673 4.29459,-3.10672 4.29459,-8.8633 0,-5.02559 -3.10672,-7.85819 -3.06104,-2.8326 -10.09686,-4.248904 l -5.61952,-1.096491 q -10.32529,-2.055921 -14.93969,-6.441886 -4.6144,-4.385965 -4.6144,-12.198465 0,-9.046053 6.35051,-14.254386 6.3962,-5.208334 17.58955,-5.208334 4.79715,0 9.77705,0.868056 4.97989,0.868055 10.18823,2.604167 z"/>
		<path d="m 360.16995,68.048245 q -10.05117,0 -15.99049,7.49269 -5.89364,7.49269 -5.89364,20.422149 0,12.883776 5.89364,20.376466 5.93932,7.49269 15.99049,7.49269 10.05117,0 15.89913,-7.49269 5.89364,-7.49269 5.89364,-20.376466 0,-12.929459 -5.89364,-20.422149 -5.84796,-7.49269 -15.89913,-7.49269 z m 0,-7.492691 q 14.34577,0 22.93495,9.639986 8.58918,9.594298 8.58918,25.767544 0,16.127556 -8.58918,25.767546 -8.58918,9.5943 -22.93495,9.5943 -14.39144,0 -23.02631,-9.5943 -8.58918,-9.5943 -8.58918,-25.767546 0,-16.173246 8.58918,-25.767544 8.63487,-9.639986 23.02631,-9.639986 z"/>
		<path d="m 411.13121,61.789107 h 13.75183 l 17.4068,46.418133 17.49817,-46.418133 h 13.75183 V 130 h -9.00037 V 70.104166 l -17.58955,46.783624 h -9.27448 L 420.08589,70.104166 V 130 h -8.95468 z"/>
		<path d="m 496.90607,61.789107 h 43.12865 v 7.766813 h -33.89985 v 20.193714 h 32.48355 v 7.766813 h -32.48355 v 24.716743 h 34.72222 V 130 h -43.95102 z"/>
		<path d="m 551.65934,61.789107 h 57.70285 V 69.55592 H 585.14801 V 130 h -9.27449 V 69.55592 h -24.21418 z"/>
		<path d="m 623.31689,61.789107 h 9.22881 v 27.960527 h 33.53435 V 61.789107 h 9.2288 V 130 h -9.2288 V 97.516447 H 632.5457 V 130 h -9.22881 z"/>
		<path d="m 698.67508,61.789107 h 9.2288 V 130 h -9.2288 z"/>
		<path d="m 731.27011,61.789107 h 12.4269 L 773.9419,118.85234 V 61.789107 h 8.95467 V 130 h -12.4269 L 740.22479,72.936768 V 130 h -8.95468 z"/>
		<path d="M 852.77232,120.26864 V 101.9481 h -15.07675 v -7.584066 h 24.21418 v 29.285456 q -5.3454,3.79203 -11.78728,5.75658 -6.44189,1.91886 -13.75183,1.91886 -15.9905,0 -25.03655,-9.32018 -9.00037,-9.36586 -9.00037,-26.041666 0,-16.721491 9.00037,-26.041667 9.04605,-9.365863 25.03655,-9.365863 6.67032,0 12.65534,1.644737 6.0307,1.644737 11.10197,4.842837 v 9.822734 q -5.11696,-4.340278 -10.87354,-6.533261 -5.75658,-2.192982 -12.10709,-2.192982 -12.51827,0 -18.8231,6.990131 -6.25914,6.990132 -6.25914,20.833334 0,13.797516 6.25914,20.787646 6.30483,6.99013 18.8231,6.99013 4.88852,0 8.72624,-0.82237 3.83772,-0.86805 6.89876,-2.64985 z"/>
		<path d="m 918.60199,61.789107 h 12.4269 l 30.24488,57.063233 V 61.789107 h 8.95468 V 130 h -12.4269 L 927.55667,72.936768 V 130 h -8.95468 z"/>
		<path d="m 993.59467,61.789107 h 43.12863 v 7.766813 h -33.8998 v 20.193714 h 32.4835 v 7.766813 h -32.4835 v 24.716743 h 34.7222 V 130 h -43.95103 z"/>
		<path d="m 1051.7288,61.789107 h 9.3202 l 14.3457,57.657163 14.3001,-57.657163 h 10.371 l 14.3457,57.657163 14.3001,-57.657163 h 9.3659 L 1120.9448,130 h -11.6045 L 1094.9488,70.789473 1080.4203,130 h -11.6045 z"/>
	</g>
	<g aria-label="P. G. WODEHOUSE">
		<path d="m 355.54962,244.52988 v 19.22286 h 8.7034 q 4.83141,0 7.46984,-2.50137 2.63844,-2.50137 2.63844,-7.12719 0,-4.59156 -2.63844,-7.09293 -2.63843,-2.50137 -7.46984,-2.50137 z m -6.9216,-5.68805 h 15.625 q 8.6006,0 12.98657,3.90625 4.42023,3.87199 4.42023,11.3761 0,7.57264 -4.42023,11.44463 -4.38597,3.87198 -12.98657,3.87198 h -8.7034 V 290 h -6.9216 z"/>
		<path d="m 385.63186,281.2966 h 7.22999 V 290 h -7.22999 z"/>
		<path d="m 474.57922,282.70148 v -13.74041 h -11.30756 v -5.68804 h 18.16063 v 21.96409 q -4.00904,2.84402 -8.84046,4.31743 -4.83141,1.43915 -10.31387,1.43915 -11.99287,0 -18.77741,-6.99014 -6.75028,-7.02439 -6.75028,-19.53125 0,-12.54111 6.75028,-19.53125 6.78454,-7.02439 18.77741,-7.02439 5.00274,0 9.4915,1.23355 4.52303,1.23355 8.32648,3.63213 v 7.36705 q -3.83772,-3.25521 -8.15515,-4.89995 -4.31743,-1.64473 -9.08032,-1.64473 -9.3887,0 -14.11732,5.24259 -4.69436,5.2426 -4.69436,15.625 0,10.34814 4.69436,15.59074 4.72862,5.2426 14.11732,5.2426 3.66639,0 6.54468,-0.61678 2.87829,-0.65104 5.17407,-1.98739 z"/>
		<path d="m 499.72725,281.2966 h 7.22999 V 290 h -7.22999 z"/>
		<path d="m 549.2352,238.84183 h 6.99013 l 10.75932,43.24287 10.72506,-43.24287 h 7.77823 l 10.75932,43.24287 10.72506,-43.24287 h 7.02439 L 601.14721,290 h -8.7034 L 581.65022,245.59211 570.75384,290 h -8.7034 z"/>
		<path d="m 648.91037,243.53618 q -7.53838,0 -11.99287,5.61952 -4.42023,5.61952 -4.42023,15.31661 0,9.66283 4.42023,15.28235 4.45449,5.61952 11.99287,5.61952 7.53838,0 11.92434,-5.61952 4.42023,-5.61952 4.42023,-15.28235 0,-9.69709 -4.42023,-15.31661 -4.38596,-5.61952 -11.92434,-5.61952 z m 0,-5.61951 q 10.75932,0 17.2012,7.22999 6.44189,7.19572 6.44189,19.32565 0,12.09567 -6.44189,19.32566 -6.44188,7.19573 -17.2012,7.19573 -10.79359,0 -17.26974,-7.19573 -6.44188,-7.19572 -6.44188,-19.32566 0,-12.12993 6.44188,-19.32565 6.47615,-7.22999 17.26974,-7.22999 z"/>
		<path d="m 695.30292,244.52988 v 39.78207 h 8.36074 q 10.58799,0 15.48794,-4.79715 4.93421,-4.79715 4.93421,-15.14528 0,-10.27961 -4.93421,-15.04249 -4.89995,-4.79715 -15.48794,-4.79715 z m -6.92161,-5.68805 h 14.22012 q 14.87117,0 21.82703,6.20203 6.95587,6.16776 6.95587,19.32566 0,13.22642 -6.99013,19.42845 Q 717.40407,290 702.60143,290 h -14.22012 z"/>
		<path d="M 747.38351,238.84183 H 779.73 v 5.82511 h -25.42489 v 15.14529 h 24.36267 v 5.82511 h -24.36267 v 18.53755 h 26.04167 V 290 h -32.96327 z"/>
		<path d="m 796.79141,238.84183 h 6.9216 v 20.9704 h 25.15077 v -20.9704 h 6.9216 V 290 h -6.9216 V 265.63734 H 803.71301 V 290 h -6.9216 z"/>
		<path d="m 875.32483,243.53618 q -7.53838,0 -11.99288,5.61952 -4.42023,5.61952 -4.42023,15.31661 0,9.66283 4.42023,15.28235 4.4545,5.61952 11.99288,5.61952 7.53837,0 11.92434,-5.61952 4.42023,-5.61952 4.42023,-15.28235 0,-9.69709 -4.42023,-15.31661 -4.38597,-5.61952 -11.92434,-5.61952 z m 0,-5.61951 q 10.75932,0 17.2012,7.22999 6.44189,7.19572 6.44189,19.32565 0,12.09567 -6.44189,19.32566 -6.44188,7.19573 -17.2012,7.19573 -10.79359,0 -17.26974,-7.19573 -6.44188,-7.19572 -6.44188,-19.32566 0,-12.12993 6.44188,-19.32565 6.47615,-7.22999 17.26974,-7.22999 z"/>
		<path d="m 914.0077,238.84183 h 6.95587 v 31.07867 q 0,8.22369 2.98108,11.85582 2.98109,3.59786 9.66283,3.59786 6.64748,0 9.62856,-3.59786 2.98109,-3.63213 2.98109,-11.85582 v -31.07867 h 6.95587 v 31.93531 q 0,10.00548 -4.96848,15.11102 -4.93421,5.10554 -14.59704,5.10554 -9.69709,0 -14.66557,-5.10554 -4.93421,-5.10554 -4.93421,-15.11102 z"/>
		<path d="m 1001.8613,240.52083 v 6.75028 q -3.94051,-1.8846 -7.43558,-2.80976 -3.49506,-0.92517 -6.75027,-0.92517 -5.65378,0 -8.73767,2.19299 -3.04961,2.19298 -3.04961,6.23629 0,3.39227 2.02165,5.1398 2.05592,1.71327 7.74397,2.7755 l 4.18037,0.85663 q 7.74397,1.47341 11.41034,5.20833 3.7007,3.70066 3.7007,9.93696 0,7.43558 -5.00276,11.2733 -4.96847,3.83772 -14.59704,3.83772 -3.63212,0 -7.74397,-0.82237 -4.07757,-0.82237 -8.46354,-2.43284 v -7.1272 q 4.21464,2.36431 8.25795,3.5636 4.04331,1.19929 7.94956,1.19929 5.92791,0 9.14885,-2.33005 3.22095,-2.33004 3.22095,-6.64747 0,-3.76919 -2.33005,-5.89364 -2.29578,-2.12446 -7.57264,-3.18668 l -4.21464,-0.82237 q -7.74397,-1.54194 -11.20477,-4.83141 -3.4608,-3.28948 -3.4608,-9.14885 0,-6.78454 4.76288,-10.69079 4.79715,-3.90625 13.19216,-3.90625 3.59787,0 7.33279,0.65104 3.73492,0.65104 7.64117,1.95312 z"/>
		<path d="m 1020.7387,238.84183 h 32.3465 v 5.82511 h -25.4249 v 15.14529 h 24.3627 v 5.82511 h -24.3627 v 18.53755 h 26.0417 V 290 h -32.9633 z"/>
	</g>
</svg>
